<svg xmlns="http://www.w3.org/2000/svg" viewBox="0 0 1280 720" width="1280" height="720"><defs><linearGradient id="heroBg" x1="0" y1="0" x2="1" y2="1"><stop offset="0%" stop-color="#F7FBF8"/><stop offset="100%" stop-color="#EAF6EE"/></linearGradient><linearGradient id="leafGrad" x1="0" y1="0" x2="1" y2="1"><stop offset="0%" stop-color="#27AE60"/><stop offset="100%" stop-color="#1A5C3A"/></linearGradient><radialGradient id="glow" cx="78%" cy="18%" r="42%"><stop offset="0%" stop-color="#27AE60" stop-opacity="0.18"/><stop offset="100%" stop-color="#27AE60" stop-opacity="0"/></radialGradient></defs><rect width="1280" height="720" fill="url(#heroBg)"/><circle cx="1015" cy="138" r="244" fill="url(#glow)"/><circle cx="1124" cy="92" r="76" fill="#27AE60" opacity="0.10"/><rect x="64" y="64" width="1152" height="592" rx="34" fill="#FFFFFF" stroke="#DDEBE0" stroke-width="1.5"/><path d="M870 150 C962 2 1176 22 1156 230 C1040 182 952 185 870 150Z" fill="url(#leafGrad)" opacity="0.96"/><path d="M916 182 C1024 162 1098 194 1142 246" fill="none" stroke="#FFFFFF" stroke-width="5" stroke-linecap="round" opacity="0.72"/><circle cx="980" cy="324" r="116" fill="#F0F7F0"/><circle cx="1080" cy="434" r="92" fill="#EFF8F1"/><circle cx="942" cy="480" r="58" fill="#27AE60" opacity="0.10"/><path d="M930 314 C1012 264 1112 274 1178 338" fill="none" stroke="#D6E6D8" stroke-width="3" stroke-dasharray="8 10" opacity="0.9"/><rect x="118" y="146" width="140" height="42" rx="21" fill="#F0F7F0" stroke="#D6E6D8"/><use data-icon="tabler-outline/leaf" x="136" y="156" width="22" height="22" fill="#27AE60" stroke-width="2"/><text x="168" y="173" font-family="'Microsoft YaHei','Calibri',sans-serif" font-size="20" font-weight="700" fill="#1A5C3A">低碳生活科普</text><text x="118" y="282" font-family="'Microsoft YaHei','Calibri',sans-serif" font-size="84" font-weight="800" fill="#1A5C3A">低碳生活</text><text x="118" y="346" font-family="'Microsoft YaHei','Calibri',sans-serif" font-size="30" font-weight="500" fill="#4F6356">从日常小事做起，守护我们的地球家园</text><rect x="118" y="410" width="332" height="96" rx="22" fill="#FFFFFF" stroke="#D6E6D8"/><text x="146" y="452" font-family="'Microsoft YaHei','Calibri',sans-serif" font-size="19" font-weight="600" fill="#4F6356">核心主题</text><text x="146" y="488" font-family="'Microsoft YaHei','Calibri',sans-serif" font-size="26" font-weight="800" fill="#1A5C3A">绿色出行 · 节能降耗 · 减少浪费 · 低碳饮食</text><rect x="118" y="546" width="170" height="44" rx="22" fill="#1A5C3A"/><text x="203" y="575" text-anchor="middle" font-family="'Microsoft YaHei','Calibri',sans-serif" font-size="20" font-weight="700" fill="#FFFFFF">科普讲座</text><rect x="914" y="262" width="218" height="122" rx="24" fill="#FFFFFF" stroke="#D6E6D8"/><text x="948" y="312" font-family="'Microsoft YaHei','Calibri',sans-serif" font-size="18" font-weight="600" fill="#4F6356">目标导向</text><text x="948" y="354" font-family="'Microsoft YaHei','Calibri',sans-serif" font-size="40" font-weight="800" fill="#27AE60">从认知到行动</text><rect x="878" y="468" width="262" height="100" rx="24" fill="#F4FAF7" stroke="#D6E6D8"/><text x="912" y="510" font-family="'Microsoft YaHei','Calibri',sans-serif" font-size="18" font-weight="600" fill="#4F6356">关键信息</text><text x="912" y="538" font-family="'Microsoft YaHei','Calibri',sans-serif" font-size="22" font-weight="800" fill="#1A5C3A"><tspan x="912" dy="0">每一次低碳选择，</tspan><tspan x="912" dy="30">都会累积真实影响</tspan></text><text x="64" y="692" font-family="'Microsoft YaHei','Calibri',sans-serif" font-size="13" fill="#7A8B80">低碳生活科普 · Beautify Route</text></svg>