<svg xmlns="http://www.w3.org/2000/svg" viewBox="0 0 1280 720" width="1280" height="720"><defs><linearGradient id="softGlow" x1="0" y1="0" x2="1" y2="1"><stop offset="0%" stop-color="#1A5C3A" stop-opacity="0.12"/><stop offset="100%" stop-color="#27AE60" stop-opacity="0.02"/></linearGradient></defs><rect width="1280" height="720" fill="#FFFFFF"/><circle cx="1120" cy="98" r="160" fill="url(#softGlow)"/><circle cx="1184" cy="76" r="64" fill="#27AE60" opacity="0.09"/><rect x="64" y="44" width="1152" height="632" rx="24" fill="none" stroke="#D6E6D8" stroke-width="1.5"/><rect x="64" y="44" width="8" height="72" rx="4" fill="#27AE60"/><text x="96" y="88" font-family="'Microsoft YaHei','Calibri',sans-serif" font-size="36" font-weight="800" fill="#1A5C3A">我们的碳足迹来自哪里？</text><text x="96" y="118" font-family="'Microsoft YaHei','Calibri',sans-serif" font-size="15" font-weight="500" fill="#7A8B80">四类来源占比</text><path d="M640 178 L640 608" stroke="#E6F0E8" stroke-width="2" stroke-dasharray="8 10"/><path d="M116 390 L1164 390" stroke="#E6F0E8" stroke-width="2" stroke-dasharray="8 10"/><rect x="88" y="170" width="540" height="194" rx="20" fill="#F4FAF7" stroke="#D6E6D8"/><circle cx="148" cy="226" r="24" fill="#FFFFFF"/><text x="148" y="234" text-anchor="middle" font-family="'Microsoft YaHei','Calibri',sans-serif" font-size="24">🏭</text><text x="188" y="232" font-family="'Microsoft YaHei','Calibri',sans-serif" font-size="26" font-weight="800" fill="#1A5C3A">工业制造</text><text x="122" y="298" font-family="'Microsoft YaHei','Calibri',sans-serif" font-size="50" font-weight="800" fill="#27AE60">35%</text><rect x="244" y="278" width="320" height="20" rx="10" fill="#DDEFE2"/><rect x="244" y="278" width="112" height="20" rx="10" fill="#27AE60"/><text x="122" y="334" font-family="'Microsoft YaHei','Calibri',sans-serif" font-size="20" font-weight="500" fill="#4F6356">能源生产与工业排放</text><rect x="652" y="170" width="540" height="194" rx="20" fill="#FFF8ED" stroke="#D6E6D8"/><circle cx="712" cy="226" r="24" fill="#FFFFFF"/><text x="712" y="234" text-anchor="middle" font-family="'Microsoft YaHei','Calibri',sans-serif" font-size="24">🚗</text><text x="752" y="232" font-family="'Microsoft YaHei','Calibri',sans-serif" font-size="26" font-weight="800" fill="#1A5C3A">交通运输</text><text x="686" y="298" font-family="'Microsoft YaHei','Calibri',sans-serif" font-size="50" font-weight="800" fill="#F39C20">24%</text><rect x="808" y="278" width="320" height="20" rx="10" fill="#F8E8CF"/><rect x="808" y="278" width="77" height="20" rx="10" fill="#F39C20"/><text x="686" y="334" font-family="'Microsoft YaHei','Calibri',sans-serif" font-size="20" font-weight="500" fill="#4F6356">汽车、飞机、轮船</text><rect x="88" y="414" width="540" height="194" rx="20" fill="#F7FBF8" stroke="#D6E6D8"/><circle cx="148" cy="470" r="24" fill="#FFFFFF"/><text x="148" y="478" text-anchor="middle" font-family="'Microsoft YaHei','Calibri',sans-serif" font-size="24">🏠</text><text x="188" y="476" font-family="'Microsoft YaHei','Calibri',sans-serif" font-size="26" font-weight="800" fill="#1A5C3A">家庭生活</text><text x="122" y="542" font-family="'Microsoft YaHei','Calibri',sans-serif" font-size="50" font-weight="800" fill="#1A5C3A">21%</text><rect x="244" y="522" width="320" height="20" rx="10" fill="#EAF2EC"/><rect x="244" y="522" width="67" height="20" rx="10" fill="#1A5C3A"/><text x="122" y="578" font-family="'Microsoft YaHei','Calibri',sans-serif" font-size="20" font-weight="500" fill="#4F6356">供暖、制冷、用电</text><rect x="652" y="414" width="540" height="194" rx="20" fill="#F8FBF1" stroke="#D6E6D8"/><circle cx="712" cy="470" r="24" fill="#FFFFFF"/><text x="712" y="478" text-anchor="middle" font-family="'Microsoft YaHei','Calibri',sans-serif" font-size="24">🍽️</text><text x="752" y="476" font-family="'Microsoft YaHei','Calibri',sans-serif" font-size="26" font-weight="800" fill="#1A5C3A">农业食品</text><text x="686" y="542" font-family="'Microsoft YaHei','Calibri',sans-serif" font-size="50" font-weight="800" fill="#2E8B57">18%</text><rect x="808" y="522" width="320" height="20" rx="10" fill="#E2F2E8"/><rect x="808" y="522" width="58" height="20" rx="10" fill="#2E8B57"/><text x="686" y="578" font-family="'Microsoft YaHei','Calibri',sans-serif" font-size="20" font-weight="500" fill="#4F6356">畜牧业、化肥、食物运输</text></svg>