<svg xmlns="http://www.w3.org/2000/svg" viewBox="0 0 1280 720" width="1280" height="720"><defs><linearGradient id="softGlow" x1="0" y1="0" x2="1" y2="1"><stop offset="0%" stop-color="#1A5C3A" stop-opacity="0.12"/><stop offset="100%" stop-color="#27AE60" stop-opacity="0.02"/></linearGradient></defs><rect width="1280" height="720" fill="#FFFFFF"/><circle cx="1120" cy="98" r="160" fill="url(#softGlow)"/><circle cx="1184" cy="76" r="64" fill="#27AE60" opacity="0.09"/><rect x="64" y="44" width="1152" height="632" rx="24" fill="none" stroke="#D6E6D8" stroke-width="1.5"/><rect x="64" y="44" width="8" height="72" rx="4" fill="#27AE60"/><text x="96" y="88" font-family="'Microsoft YaHei','Calibri',sans-serif" font-size="36" font-weight="800" fill="#1A5C3A">行动三：减少浪费</text><text x="96" y="118" font-family="'Microsoft YaHei','Calibri',sans-serif" font-size="15" font-weight="500" fill="#7A8B80">五步行动清单</text><circle cx="140" cy="166" r="28" fill="#27AE60"/><text x="140" y="175" text-anchor="middle" font-family="'Microsoft YaHei','Calibri',sans-serif" font-size="24" font-weight="800" fill="#FFFFFF">1</text><line x1="140" y1="194" x2="140" y2="248" stroke="#D6E6D8" stroke-width="3" stroke-dasharray="8 8"/><rect x="200" y="126" width="930" height="82" rx="16" fill="#FFFFFF" stroke="#D6E6D8"/><text x="232" y="160" font-family="'Microsoft YaHei','Calibri',sans-serif" font-size="22" font-weight="700" fill="#1A5C3A">🛒 自带购物袋</text><text x="232" y="190" font-family="'Microsoft YaHei','Calibri',sans-serif" font-size="18" font-weight="450" fill="#4F6356">每年少用365个塑料袋，减少石油消耗</text><circle cx="140" cy="270" r="28" fill="#27AE60"/><text x="140" y="279" text-anchor="middle" font-family="'Microsoft YaHei','Calibri',sans-serif" font-size="24" font-weight="800" fill="#FFFFFF">2</text><line x1="140" y1="298" x2="140" y2="352" stroke="#D6E6D8" stroke-width="3" stroke-dasharray="8 8"/><rect x="200" y="230" width="930" height="82" rx="16" fill="#FFFFFF" stroke="#D6E6D8"/><text x="232" y="264" font-family="'Microsoft YaHei','Calibri',sans-serif" font-size="22" font-weight="700" fill="#1A5C3A">🥤 使用水杯</text><text x="232" y="294" font-family="'Microsoft YaHei','Calibri',sans-serif" font-size="18" font-weight="450" fill="#4F6356">少买瓶装水，一年减少上百个塑料瓶</text><circle cx="140" cy="374" r="28" fill="#27AE60"/><text x="140" y="383" text-anchor="middle" font-family="'Microsoft YaHei','Calibri',sans-serif" font-size="24" font-weight="800" fill="#FFFFFF">3</text><line x1="140" y1="402" x2="140" y2="456" stroke="#D6E6D8" stroke-width="3" stroke-dasharray="8 8"/><rect x="200" y="334" width="930" height="82" rx="16" fill="#FFFFFF" stroke="#D6E6D8"/><text x="232" y="368" font-family="'Microsoft YaHei','Calibri',sans-serif" font-size="22" font-weight="700" fill="#1A5C3A">🍽️ 光盘行动</text><text x="232" y="398" font-family="'Microsoft YaHei','Calibri',sans-serif" font-size="18" font-weight="450" fill="#4F6356">减少食物浪费，全球8%碳排放来自食物浪费</text><circle cx="140" cy="478" r="28" fill="#27AE60"/><text x="140" y="487" text-anchor="middle" font-family="'Microsoft YaHei','Calibri',sans-serif" font-size="24" font-weight="800" fill="#FFFFFF">4</text><line x1="140" y1="506" x2="140" y2="560" stroke="#D6E6D8" stroke-width="3" stroke-dasharray="8 8"/><rect x="200" y="438" width="930" height="82" rx="16" fill="#FFFFFF" stroke="#D6E6D8"/><text x="232" y="472" font-family="'Microsoft YaHei','Calibri',sans-serif" font-size="22" font-weight="700" fill="#1A5C3A">♻️ 垃圾分类回收</text><text x="232" y="502" font-family="'Microsoft YaHei','Calibri',sans-serif" font-size="18" font-weight="450" fill="#4F6356">回收1吨纸可少砍17棵树，节能40%</text><circle cx="140" cy="582" r="28" fill="#F39C20"/><text x="140" y="591" text-anchor="middle" font-family="'Microsoft YaHei','Calibri',sans-serif" font-size="24" font-weight="800" fill="#FFFFFF">5</text><rect x="200" y="542" width="930" height="82" rx="16" fill="#FFFFFF" stroke="#D6E6D8"/><text x="232" y="576" font-family="'Microsoft YaHei','Calibri',sans-serif" font-size="22" font-weight="700" fill="#1A5C3A">👕 旧物改造再利用</text><text x="232" y="606" font-family="'Microsoft YaHei','Calibri',sans-serif" font-size="18" font-weight="450" fill="#4F6356">延长物品使用寿命就是减少碳排放</text></svg>